<svg width="247" height="180" viewBox="0 0 247 180" fill="none" xmlns="http://www.w3.org/2000/svg">
<path d="M123.492 180C172.656 180 212.511 139.706 212.511 90C212.511 40.2944 172.656 0 123.492 0C74.3279 0 34.4727 40.2944 34.4727 90C34.4727 139.706 74.3279 180 123.492 180Z" fill="#EA5A47"/>
<path d="M188.17 28.13C198.349 47.3468 201.284 69.6458 196.43 90.8854C191.576 112.125 179.262 130.862 161.776 143.615C144.289 156.369 122.819 162.273 101.352 160.231C79.885 158.188 59.8808 148.338 45.0547 132.51C51.0512 143.809 59.3666 153.682 69.444 161.468C79.5214 169.253 91.128 174.772 103.486 177.654C115.845 180.535 128.67 180.714 141.102 178.177C153.534 175.641 165.286 170.447 175.572 162.945C185.858 155.443 194.439 145.806 200.741 134.678C207.043 123.55 210.92 111.19 212.113 98.424C213.306 85.6583 211.787 72.7823 207.657 60.6584C203.528 48.5345 196.884 37.4427 188.17 28.126V28.13Z" fill="#D22F27"/>
<path d="M189.243 35.4164C219.546 31.7195 241.123 35.3206 245.281 46.7907C252.547 66.8244 203.917 103.283 136.66 128.219C69.4025 153.155 8.98482 157.132 1.71891 137.098C-2.50638 125.444 12.1716 108.241 38.4276 90.9782L38.7277 97.1784C28.82 106.173 24.0616 114.509 26.3361 120.785C31.9988 136.391 79.0614 133.293 131.455 113.866C183.849 94.4396 221.726 66.0419 216.071 50.4357C213.888 44.4192 205.548 41.1814 193.12 40.5905L189.243 35.4164Z" fill="#F1B31C"/>
<path d="M48.4992 130.585C43.0817 120.358 39.7667 109.13 38.7539 97.5744C37.7411 86.019 39.0513 74.376 42.6057 63.346C46.1601 52.316 51.8852 42.1271 59.4364 33.3926C66.9876 24.6582 76.2088 17.5587 86.5449 12.5216C96.881 7.48448 108.118 4.61384 119.58 4.08245C131.043 3.55107 142.493 5.36994 153.241 9.42958C163.99 13.4892 173.815 19.7057 182.125 27.7048C190.435 35.704 197.059 45.3204 201.597 55.9752" stroke="black" stroke-width="0.5" stroke-linecap="round" stroke-linejoin="round"/>
<path d="M208.538 92.9395C207.984 108.832 203.085 124.259 194.385 137.508C185.685 150.756 173.524 161.309 159.251 167.993C144.979 174.678 129.154 177.233 113.532 175.376C97.9104 173.519 83.1031 167.322 70.7539 157.472" stroke="black" stroke-width="0.5" stroke-linecap="round" stroke-linejoin="round"/>
<path d="M189.243 35.4086C219.546 31.7117 241.123 35.3128 245.281 46.7829C252.547 66.8166 203.917 103.275 136.66 128.211C69.4025 153.148 8.98482 157.124 1.71891 137.09C-2.50638 125.437 12.1716 108.233 38.4276 90.9704" stroke="black" stroke-width="0.5" stroke-linecap="round" stroke-linejoin="round"/>
<path d="M193.117 40.5786C205.545 41.1775 213.885 44.4113 216.064 50.4278C221.727 66.038 183.842 94.4357 131.448 113.859C79.0544 133.281 31.9958 136.384 26.3331 120.777C24.0586 114.501 28.8209 106.165 38.7247 97.1705" stroke="black" stroke-width="0.5" stroke-linecap="round" stroke-linejoin="round"/>
</svg>
